# xmcd CD database file
#
# Track frame offsets:
#	150
#	30997
#	50075
#	75565
#	96565
#	118507
#	150950
#	173170
#	195387
#	216365
#
# Disc length: 3163 seconds
#
# Revision: 0
# Processed by: cddbd v1.5.1PL0 Copyright (c) Steve Scherf et al.
# Submitted via: CDex 1.51
#
DISCID=7a0c590a
DTITLE=Adalberto Alvarez y su Son - ?
DYEAR=1900
DGENRE=Salsa
TTITLE0=Dale Come E
TTITLE1=La Novia Da Un Amigo Mio
TTITLE2=Dejala Que Se Vaya
TTITLE3=Noche Sensacional
TTITLE4=Mamaita No Quiere
TTITLE5=Potpurri De Matamoros
TTITLE6=Contradicciones
TTITLE7=Que No Dara Yo
TTITLE8=Que Te Pasa Mami
TTITLE9=Y Que Tu Quieres Que Te Den?
EXTD=
EXTT0=
EXTT1=
EXTT2=
EXTT3=
EXTT4=
EXTT5=
EXTT6=
EXTT7=
EXTT8=
EXTT9=
PLAYORDER=
